<?xml version="1.0" encoding="utf-8"?>
<!-- Generator: Adobe Illustrator 14.0.0, SVG Export Plug-In . SVG Version: 6.00 Build 43363)  -->
<!DOCTYPE svg PUBLIC "-//W3C//DTD SVG 1.1//EN" "http://www.w3.org/Graphics/SVG/1.1/DTD/svg11.dtd">
<svg version="1.1" id="Layer_1" xmlns="http://www.w3.org/2000/svg" xmlns:xlink="http://www.w3.org/1999/xlink" x="0px" y="0px"
	 width="595.28px" height="841.89px" viewBox="0 0 595.28 841.89" enable-background="new 0 0 595.28 841.89" xml:space="preserve">
<g>
	<rect x="402.941" y="388.089" fill="#0C6A39" width="2.617" height="76.135"/>
	<path fill="#0C6A39" d="M275.342,436.055c0.563-0.42,2.626-1.137,3.475-1.602c24.617-13.461,13.849-44.063-14.241-45.949
		l-31.688-0.449c-0.001-0.001-0.001-0.002-0.002-0.003c-6.979-9.077-16.616-15.99-27.782-19.563
		c9.157,4.459,16.915,11.306,22.5,19.719c6.113,9.219,9.611,20.32,9.439,32.217c-0.171,11.91-3.986,22.895-10.362,31.945
		c-10.465,14.816-27.822,24.406-47.329,24.125c-5.77-0.084-11.319-1.039-16.537-2.711c7.29,3.57,15.464,5.631,24.117,5.756
		c15.323,0.221,29.302-5.646,39.669-15.348l17.44,0.248l0.381-26.367l13.55,0.195c5.623,8.961,11.604,17.768,17.456,26.625
		l18.831,0.27l-19.099-28.803C275.109,436.203,275.222,436.145,275.342,436.055 M268.729,423.693
		c-0.839,0.422-3.614,1.408-4.489,1.396l-19.628-0.283l0.016-1.082c0.002-0.081,0.009-0.16,0.011-0.24
		c0-0.049-0.005-0.096-0.005-0.145l0.302-20.988l19.828,0.285c0.739,0.011,3.196,0.92,3.929,1.281
		C277.031,408.029,276.928,419.568,268.729,423.693"/>
	<path fill="#0C6A39" d="M359.74,388.089h-21.83l-31.286,76.135h18.834l5.771-13.793l35.052,0.039l5.513,13.754h19.132
		L359.74,388.089z M336.719,436.494l11.96-30.964l12.354,30.964H336.719z"/>
	<path fill="#0C6A39" d="M95.743,417.008c-5.182-1.867-10.269-4.464-8.636-10.083c1.959-6.742,13.986-6.793,19.925-4.318
		c4.174,1.74,6.524,4.874,8.745,8.196l14.613-7.369c-3.898-6.805-10.45-12.413-18.86-15.044c-4.568-1.43-9.978-2.087-14.838-1.865
		c-15.577,0.711-28.424,10.036-27.459,24.022c0.845,12.259,11.571,17.123,23.76,20.546c7.465,2.1,26.661,4.771,21.712,14.873
		c-3.01,6.145-16.609,5.748-22.66,3.801c-5.656-1.82-9.276-5.73-11.554-10.379c-1.505,1.172-14.835,6.988-14.85,7.73
		c-0.009,0.408,1.967,3.695,2.359,4.289c14.684,22.156,66.914,18.836,65.013-10.072C131.841,423.504,110.645,422.377,95.743,417.008
		"/>
	<path fill="#0C6A39" d="M195.838,402.911h-44.046c0-7.987,6.475-14.461,14.461-14.461h44.046
		C210.299,396.437,203.824,402.911,195.838,402.911"/>
	<path fill="#0C6A39" d="M195.838,432.84h-44.046c0-7.986,6.475-14.461,14.461-14.461h44.046
		C210.299,426.365,203.824,432.84,195.838,432.84"/>
	<path fill="#0C6A39" d="M195.838,463.449h-44.046c0-7.988,6.475-14.461,14.461-14.461h44.046
		C210.299,456.975,203.824,463.449,195.838,463.449"/>
	<g>
		<path fill="#0C6A39" d="M427.846,389.837c-1.424-0.008-2.268,0.681-2.277,1.621c-0.008,1.052,1.104,1.483,2.139,1.724l1.172,0.311
			c1.863,0.431,3.656,1.414,3.656,3.586c0,2.189-1.732,3.689-4.725,3.689c-2.906,0-4.75-1.396-4.846-3.862h2.207
			c0.104,1.302,1.199,1.94,2.621,1.949c1.475-0.009,2.492-0.724,2.5-1.793c-0.008-0.983-0.904-1.396-2.258-1.741l-1.414-0.362
			c-2.053-0.535-3.328-1.569-3.328-3.362c0-2.207,1.957-3.672,4.586-3.672c2.646,0,4.449,1.491,4.484,3.604h-2.156
			C430.096,390.449,429.189,389.829,427.846,389.837z"/>
		<path fill="#0C6A39" d="M440.285,391.216h2.189v9.363h-2.121v-1.655h-0.104c-0.432,1.043-1.414,1.776-2.811,1.776
			c-1.854,0-3.129-1.276-3.139-3.518v-5.966h2.207v5.621c0,1.19,0.707,1.948,1.777,1.948c0.965,0,2-0.707,2-2.138V391.216z"/>
		<path fill="#0C6A39" d="M448.24,392.734c-0.939-0.009-1.629,0.465-1.621,1.104c-0.008,0.483,0.379,0.845,1.328,1.069l1.586,0.328
			c1.768,0.388,2.629,1.207,2.639,2.552c-0.01,1.759-1.553,2.983-4,2.983c-2.381,0-3.785-1.069-4.018-2.862h2.24
			c0.129,0.802,0.75,1.198,1.777,1.189c1.059,0.009,1.75-0.422,1.758-1.121c-0.008-0.543-0.432-0.888-1.361-1.086l-1.5-0.328
			c-1.742-0.354-2.648-1.267-2.639-2.604c-0.01-1.733,1.49-2.862,3.775-2.862c2.232,0,3.613,1.095,3.777,2.793h-2.088
			C449.758,393.182,449.172,392.725,448.24,392.734z"/>
		<path fill="#0C6A39" d="M458.521,392.906h-1.844v4.862c0,0.896,0.447,1.078,1,1.086c0.258,0.008,0.689-0.018,0.965-0.035v1.793
			c-0.258,0.043-0.682,0.095-1.242,0.086c-1.654,0.009-2.93-0.811-2.914-2.569v-5.225h-1.344v-1.69h1.344v-2.241h2.191v2.241h1.844
			V392.906z"/>
		<path fill="#0C6A39" d="M463.268,395.113c0.656-0.052,1.992-0.112,2.406-0.129l-0.01-0.75c0-0.931-0.594-1.466-1.689-1.466
			c-0.982,0-1.586,0.449-1.758,1.121h-2.121c0.154-1.595,1.586-2.793,3.932-2.793c1.775,0,3.828,0.733,3.828,3.225v6.259h-2.104
			v-1.293h-0.07c-0.414,0.793-1.283,1.482-2.758,1.482c-1.785,0-3.139-0.974-3.139-2.828
			C459.785,395.837,461.535,395.225,463.268,395.113z M463.492,399.148c1.336,0,2.189-0.879,2.189-1.931l-0.008-0.767
			c-0.396,0.017-1.621,0.095-2.061,0.129c-1.043,0.086-1.707,0.526-1.707,1.345C461.906,398.734,462.57,399.148,463.492,399.148z"/>
		<path fill="#0C6A39" d="M471.051,387.492c0.699,0,1.275,0.535,1.275,1.189c0,0.664-0.576,1.199-1.275,1.207
			c-0.697-0.008-1.275-0.543-1.275-1.207C469.775,388.027,470.354,387.492,471.051,387.492z M469.93,391.216h2.207v9.363h-2.207
			V391.216z"/>
		<path fill="#0C6A39" d="M476.451,400.579h-2.207v-9.363h2.104v1.586h0.121c0.422-1.043,1.379-1.707,2.775-1.707
			c1.939,0,3.215,1.276,3.207,3.518v5.966h-2.189v-5.621c0-1.259-0.682-2.009-1.828-2c-1.164-0.009-1.982,0.776-1.982,2.138V400.579
			z"/>
		<path fill="#0C6A39" d="M487.613,395.113c0.654-0.052,1.99-0.112,2.404-0.129l-0.008-0.75c0-0.931-0.596-1.466-1.689-1.466
			c-0.982,0-1.586,0.449-1.76,1.121h-2.121c0.156-1.595,1.588-2.793,3.932-2.793c1.777,0,3.828,0.733,3.828,3.225v6.259h-2.104
			v-1.293h-0.068c-0.414,0.793-1.285,1.482-2.76,1.482c-1.783,0-3.137-0.974-3.137-2.828
			C484.131,395.837,485.881,395.225,487.613,395.113z M487.838,399.148c1.336,0,2.189-0.879,2.189-1.931l-0.01-0.767
			c-0.396,0.017-1.619,0.095-2.061,0.129c-1.043,0.086-1.707,0.526-1.707,1.345C486.25,398.734,486.914,399.148,487.838,399.148z"/>
		<path fill="#0C6A39" d="M494.379,388.096h2.207v4.655h0.086c0.336-0.664,1.018-1.655,2.672-1.655c2.164,0,3.871,1.69,3.881,4.811
			c-0.01,3.078-1.664,4.836-3.863,4.845c-1.621-0.009-2.346-0.965-2.689-1.655h-0.139v1.483h-2.154V388.096z M498.74,398.941
			c1.467,0,2.232-1.284,2.242-3.052c-0.01-1.742-0.76-2.992-2.242-3c-1.422,0.008-2.207,1.181-2.207,3
			C496.533,397.717,497.336,398.941,498.74,398.941z"/>
		<path fill="#0C6A39" d="M507.162,400.579h-2.207v-12.483h2.207V400.579z"/>
		<path fill="#0C6A39" d="M508.873,395.958c0-2.896,1.758-4.862,4.432-4.862c2.293,0,4.275,1.44,4.275,4.725v0.689h-6.535
			c0.035,1.595,0.975,2.543,2.396,2.535c0.967,0.009,1.613-0.405,1.896-0.965h2.156c-0.396,1.621-1.896,2.689-4.07,2.689
			C510.605,400.769,508.873,398.889,508.873,395.958z M515.477,395.01c-0.01-1.276-0.871-2.207-2.139-2.207
			c-1.318,0-2.207,1.017-2.285,2.207H515.477z"/>
	</g>
	<g>
		<path fill="#0C6A39" d="M423.414,409.297h8.121v1.879h-5.881v3.414h5.449v1.879h-5.449v3.414h5.914v1.896h-8.154V409.297z"/>
		<path fill="#0C6A39" d="M435.801,421.781h-2.207v-9.363h2.104v1.586h0.121c0.422-1.043,1.379-1.707,2.775-1.707
			c1.939,0,3.215,1.276,3.207,3.518v5.966h-2.189v-5.621c0-1.259-0.682-2.009-1.828-2c-1.164-0.009-1.982,0.776-1.982,2.138V421.781
			z"/>
		<path fill="#0C6A39" d="M448.594,421.781h-2.414l-3.346-9.363h2.346l2.154,6.966h0.104l2.174-6.966h2.326L448.594,421.781z"/>
		<path fill="#0C6A39" d="M454.445,408.694c0.697,0,1.275,0.534,1.275,1.189c0,0.664-0.578,1.199-1.275,1.207
			c-0.699-0.008-1.277-0.543-1.277-1.207C453.168,409.228,453.746,408.694,454.445,408.694z M453.324,412.418h2.207v9.363h-2.207
			V412.418z"/>
		<path fill="#0C6A39" d="M457.637,412.418h2.139v1.552h0.104c0.336-1.078,1.232-1.689,2.311-1.689c0.24,0,0.586,0.026,0.793,0.052
			v2.035c-0.199-0.069-0.654-0.129-1.018-0.138c-1.225,0.009-2.121,0.854-2.121,2.035v5.518h-2.207V412.418z"/>
		<path fill="#0C6A39" d="M463.6,417.143c0-2.914,1.75-4.845,4.484-4.845c2.74,0,4.49,1.931,4.482,4.845
			c0.008,2.888-1.742,4.828-4.482,4.828C465.35,421.97,463.6,420.031,463.6,417.143z M468.1,420.212c1.5,0,2.25-1.371,2.242-3.086
			c0.008-1.716-0.742-3.095-2.242-3.086c-1.525-0.009-2.275,1.371-2.275,3.086C465.824,418.841,466.574,420.212,468.1,420.212z"/>
		<path fill="#0C6A39" d="M476.488,421.781h-2.207v-9.363h2.104v1.586h0.121c0.422-1.043,1.379-1.707,2.775-1.707
			c1.939,0,3.215,1.276,3.207,3.518v5.966h-2.189v-5.621c0-1.259-0.682-2.009-1.828-2c-1.164-0.009-1.982,0.776-1.982,2.138V421.781
			z"/>
		<path fill="#0C6A39" d="M484.598,412.418h2.104v1.586h0.121c0.389-1.069,1.328-1.707,2.568-1.707c1.268,0,2.182,0.646,2.535,1.707
			h0.104c0.406-1.035,1.449-1.707,2.811-1.707c1.717,0,2.924,1.104,2.914,3.19v6.293h-2.189v-5.949c0-1.164-0.707-1.689-1.604-1.689
			c-1.078,0-1.707,0.732-1.707,1.793v5.845h-2.139v-6.035c-0.008-0.975-0.646-1.604-1.586-1.604c-0.947,0-1.725,0.784-1.725,1.948
			v5.69h-2.207V412.418z"/>
		<path fill="#0C6A39" d="M499.471,417.16c0-2.896,1.76-4.862,4.432-4.862c2.293,0,4.275,1.44,4.275,4.725v0.689h-6.533
			c0.033,1.595,0.973,2.543,2.396,2.535c0.965,0.009,1.611-0.405,1.896-0.965h2.154c-0.396,1.621-1.896,2.689-4.068,2.689
			C501.203,421.97,499.471,420.091,499.471,417.16z M506.074,416.211c-0.008-1.276-0.869-2.207-2.137-2.207
			c-1.32,0-2.207,1.018-2.285,2.207H506.074z"/>
		<path fill="#0C6A39" d="M512.1,421.781h-2.207v-9.363h2.104v1.586h0.121c0.422-1.043,1.379-1.707,2.775-1.707
			c1.939,0,3.215,1.276,3.207,3.518v5.966h-2.189v-5.621c0-1.259-0.682-2.009-1.828-2c-1.164-0.009-1.982,0.776-1.982,2.138V421.781
			z"/>
		<path fill="#0C6A39" d="M524.883,414.108h-1.844v4.862c0,0.896,0.447,1.078,1,1.086c0.258,0.008,0.689-0.018,0.965-0.035v1.793
			c-0.258,0.043-0.682,0.095-1.242,0.086c-1.654,0.009-2.93-0.81-2.914-2.569v-5.225h-1.344v-1.69h1.344v-2.241h2.191v2.241h1.844
			V414.108z"/>
	</g>
	<g>
		<path fill="#0C6A39" d="M423.414,430.499h4.689c2.861,0,4.389,1.604,4.396,3.983c-0.008,1.697-0.785,2.957-2.25,3.551l2.699,4.949
			h-2.5L428,438.413h-2.346v4.569h-2.24V430.499z M427.758,436.533c1.691,0.01,2.449-0.715,2.449-2.051
			c0-1.328-0.758-2.104-2.449-2.104h-2.104v4.154H427.758z"/>
		<path fill="#0C6A39" d="M433.814,438.361c0-2.896,1.76-4.862,4.432-4.862c2.293,0,4.275,1.44,4.275,4.725v0.689h-6.533
			c0.033,1.595,0.973,2.544,2.396,2.534c0.965,0.01,1.611-0.404,1.896-0.965h2.154c-0.396,1.621-1.896,2.689-4.068,2.689
			C435.547,443.172,433.814,441.293,433.814,438.361z M440.418,437.413c-0.008-1.276-0.869-2.207-2.137-2.207
			c-1.32,0-2.207,1.017-2.285,2.207H440.418z"/>
		<path fill="#0C6A39" d="M446.443,442.982h-2.207v-9.363h2.104v1.587h0.121c0.422-1.043,1.379-1.707,2.775-1.707
			c1.939,0,3.215,1.276,3.207,3.518v5.966h-2.189v-5.621c0-1.259-0.682-2.009-1.828-2c-1.164-0.009-1.982,0.775-1.982,2.139V442.982
			z"/>
		<path fill="#0C6A39" d="M454.158,438.361c0-2.896,1.758-4.862,4.432-4.862c2.293,0,4.275,1.44,4.275,4.725v0.689h-6.535
			c0.035,1.595,0.975,2.544,2.396,2.534c0.967,0.01,1.613-0.404,1.896-0.965h2.156c-0.396,1.621-1.896,2.689-4.07,2.689
			C455.891,443.172,454.158,441.293,454.158,438.361z M460.762,437.413c-0.01-1.276-0.871-2.207-2.139-2.207
			c-1.318,0-2.207,1.017-2.285,2.207H460.762z"/>
		<path fill="#0C6A39" d="M463.836,433.619h2.242l1.654,6.588h0.088l1.672-6.588h2.225l1.689,6.553h0.086l1.639-6.553h2.24
			l-2.654,9.363h-2.293l-1.76-6.346h-0.121l-1.758,6.346h-2.293L463.836,433.619z"/>
		<path fill="#0C6A39" d="M481.83,437.517c0.654-0.052,1.99-0.112,2.404-0.13l-0.008-0.75c0-0.931-0.596-1.465-1.689-1.465
			c-0.982,0-1.586,0.448-1.76,1.121h-2.121c0.156-1.596,1.588-2.794,3.932-2.794c1.777,0,3.828,0.733,3.828,3.225v6.259h-2.104
			v-1.293h-0.068c-0.414,0.793-1.285,1.482-2.76,1.482c-1.783,0-3.137-0.975-3.137-2.828
			C478.348,438.24,480.098,437.629,481.83,437.517z M482.055,441.551c1.336,0,2.189-0.879,2.189-1.931l-0.01-0.767
			c-0.396,0.017-1.619,0.094-2.061,0.129c-1.043,0.086-1.707,0.525-1.707,1.345C480.467,441.138,481.131,441.551,482.055,441.551z"
			/>
		<path fill="#0C6A39" d="M488.596,430.499h2.207v4.655h0.086c0.336-0.664,1.018-1.655,2.672-1.655c2.164,0,3.871,1.69,3.881,4.811
			c-0.01,3.078-1.664,4.837-3.863,4.845c-1.621-0.008-2.346-0.965-2.689-1.654h-0.139v1.482h-2.154V430.499z M492.957,441.344
			c1.467,0,2.232-1.283,2.242-3.051c-0.01-1.742-0.76-2.992-2.242-3c-1.422,0.008-2.207,1.181-2.207,3
			C490.75,440.12,491.553,441.344,492.957,441.344z"/>
		<path fill="#0C6A39" d="M501.379,442.982h-2.207v-12.483h2.207V442.982z"/>
		<path fill="#0C6A39" d="M503.088,438.361c0-2.896,1.76-4.862,4.432-4.862c2.293,0,4.275,1.44,4.275,4.725v0.689h-6.533
			c0.033,1.595,0.973,2.544,2.396,2.534c0.965,0.01,1.611-0.404,1.896-0.965h2.154c-0.396,1.621-1.896,2.689-4.068,2.689
			C504.82,443.172,503.088,441.293,503.088,438.361z M509.691,437.413c-0.008-1.276-0.869-2.207-2.137-2.207
			c-1.32,0-2.207,1.017-2.285,2.207H509.691z"/>
	</g>
	<g>
		<path fill="#0C6A39" d="M422.604,464.184L427,451.701h2.758l4.414,12.482h-2.396l-1.043-3.086h-4.697L425,464.184H422.604z
			 M430.129,459.287l-1.697-5.035h-0.104l-1.689,5.035H430.129z"/>
		<path fill="#0C6A39" d="M435.561,454.821h2.137v1.552h0.104c0.338-1.078,1.234-1.689,2.311-1.689c0.242,0,0.588,0.025,0.793,0.052
			v2.034c-0.197-0.068-0.654-0.129-1.016-0.138c-1.225,0.009-2.121,0.854-2.121,2.034v5.518h-2.207V454.821z"/>
		<path fill="#0C6A39" d="M441.523,459.546c0-2.871,1.742-4.845,4.484-4.845c2.266,0,3.861,1.327,4.016,3.345h-2.104
			c-0.172-0.897-0.826-1.577-1.896-1.587c-1.361,0.01-2.275,1.146-2.275,3.035c0,1.932,0.896,3.078,2.275,3.086
			c0.975-0.008,1.699-0.577,1.896-1.586h2.104c-0.162,1.975-1.662,3.379-4.016,3.379
			C443.213,464.373,441.523,462.373,441.523,459.546z"/>
		<path fill="#0C6A39" d="M453.893,464.184h-2.207v-12.482h2.156v4.707h0.121c0.422-1.061,1.336-1.707,2.775-1.707
			c1.939,0,3.225,1.258,3.225,3.518v5.965h-2.189v-5.621c-0.01-1.275-0.691-2.008-1.846-2c-1.189-0.008-2.035,0.776-2.035,2.139
			V464.184z"/>
		<path fill="#0C6A39" d="M463.176,451.098c0.699,0,1.275,0.533,1.275,1.189c0,0.664-0.576,1.198-1.275,1.207
			c-0.697-0.009-1.275-0.543-1.275-1.207C461.9,451.631,462.479,451.098,463.176,451.098z M462.055,454.821h2.207v9.362h-2.207
			V454.821z"/>
		<path fill="#0C6A39" d="M471.041,456.512h-1.844v4.861c0,0.896,0.447,1.078,1,1.087c0.258,0.009,0.689-0.018,0.965-0.034v1.793
			c-0.258,0.043-0.682,0.095-1.242,0.086c-1.654,0.009-2.93-0.811-2.914-2.568v-5.225h-1.344v-1.69h1.344v-2.241h2.191v2.241h1.844
			V456.512z"/>
		<path fill="#0C6A39" d="M472.25,459.563c0-2.896,1.76-4.861,4.432-4.861c2.293,0,4.275,1.439,4.275,4.725v0.689h-6.533
			c0.033,1.595,0.973,2.543,2.396,2.534c0.965,0.009,1.611-0.405,1.896-0.966h2.154c-0.396,1.621-1.896,2.689-4.068,2.689
			C473.982,464.373,472.25,462.494,472.25,459.563z M478.854,458.615c-0.008-1.276-0.869-2.207-2.137-2.207
			c-1.32,0-2.207,1.018-2.285,2.207H478.854z"/>
		<path fill="#0C6A39" d="M482.275,459.546c0-2.871,1.74-4.845,4.482-4.845c2.268,0,3.863,1.327,4.018,3.345h-2.104
			c-0.172-0.897-0.828-1.577-1.896-1.587c-1.363,0.01-2.275,1.146-2.275,3.035c0,1.932,0.896,3.078,2.275,3.086
			c0.975-0.008,1.697-0.577,1.896-1.586h2.104c-0.164,1.975-1.664,3.379-4.018,3.379
			C483.965,464.373,482.275,462.373,482.275,459.546z"/>
		<path fill="#0C6A39" d="M497.109,456.512h-1.844v4.861c0,0.896,0.447,1.078,1,1.087c0.258,0.009,0.689-0.018,0.965-0.034v1.793
			c-0.258,0.043-0.682,0.095-1.242,0.086c-1.654,0.009-2.93-0.811-2.914-2.568v-5.225h-1.344v-1.69h1.344v-2.241h2.191v2.241h1.844
			V456.512z"/>
		<path fill="#0C6A39" d="M504.787,454.821h2.189v9.362h-2.121v-1.654h-0.104c-0.43,1.043-1.412,1.775-2.811,1.775
			c-1.854,0-3.129-1.275-3.137-3.518v-5.966h2.207v5.621c0,1.19,0.707,1.948,1.775,1.948c0.965,0,2-0.707,2-2.138V454.821z"/>
		<path fill="#0C6A39" d="M509.088,454.821h2.137v1.552h0.104c0.338-1.078,1.234-1.689,2.311-1.689c0.242,0,0.588,0.025,0.793,0.052
			v2.034c-0.197-0.068-0.654-0.129-1.016-0.138c-1.225,0.009-2.121,0.854-2.121,2.034v5.518h-2.207V454.821z"/>
		<path fill="#0C6A39" d="M515.051,459.563c0-2.896,1.758-4.861,4.432-4.861c2.293,0,4.275,1.439,4.275,4.725v0.689h-6.535
			c0.035,1.595,0.975,2.543,2.396,2.534c0.967,0.009,1.613-0.405,1.896-0.966h2.156c-0.396,1.621-1.896,2.689-4.07,2.689
			C516.783,464.373,515.051,462.494,515.051,459.563z M521.654,458.615c-0.01-1.276-0.871-2.207-2.139-2.207
			c-1.318,0-2.207,1.018-2.285,2.207H521.654z"/>
	</g>
</g>
</svg>
